<svg width="1299" height="85" viewBox="0 0 1299 85" fill="none" xmlns="http://www.w3.org/2000/svg">
<mask id="mask0_410_215" style="mask-type:alpha" maskUnits="userSpaceOnUse" x="3" y="23" width="409" height="42">
<path d="M9.11447 24.4295H34.8793V31.5488H25.726L20.3583 56.8616H29.5116V63.9808H3.7468V56.8616H12.9001L18.2678 31.5488H9.11447V24.4295ZM65.7638 24.4295H80.7368C84.5789 24.4295 87.5547 25.4089 89.6641 27.3676C91.7735 29.2887 92.8282 31.8501 92.8282 35.0519C92.8282 35.5792 92.7905 36.1254 92.7152 36.6904C92.6398 37.2555 92.5456 37.8393 92.4326 38.442L89.9466 50.3074C89.4192 52.7181 88.7035 54.7899 87.7995 56.5226C86.8955 58.2176 85.7278 59.6302 84.2964 60.7602C82.9027 61.8526 81.2264 62.6625 79.2677 63.1898C77.3466 63.7172 75.1054 63.9808 72.544 63.9808H60.0571V56.8616H64.1252L69.4929 31.5488H65.7638V24.4295ZM74.0695 56.8616C76.6686 56.8616 78.6085 56.2589 79.8892 55.0535C81.2076 53.8105 82.1305 51.8894 82.6578 49.2904L84.9744 38.442C85.0497 38.1407 85.1062 37.8016 85.1439 37.425C85.2192 37.0106 85.2569 36.6339 85.2569 36.2949C85.2569 34.7505 84.7861 33.5828 83.8444 32.7918C82.9027 31.9631 81.4336 31.5488 79.4372 31.5488H76.9511L71.5835 56.8616H74.0695ZM89.9073 63.3028L98.1565 24.4295H121.605V31.5488H104.089L102.168 40.5891H117.48V47.7083H100.643L98.7216 56.8616H115.39V63.9808H89.9073V63.3028ZM143.658 37.1425C143.771 36.5774 143.827 36.0689 143.827 35.6169C143.827 34.1479 143.3 32.9613 142.245 32.0573C141.191 31.1156 139.571 30.6447 137.386 30.6447C136.52 30.6447 135.672 30.7389 134.843 30.9272C134.015 31.1156 133.28 31.4169 132.64 31.8313C132 32.208 131.491 32.6976 131.114 33.3003C130.738 33.903 130.549 34.5999 130.549 35.3909C130.549 36.7093 131.096 37.7451 132.188 38.4985C133.318 39.2519 135.126 39.8357 137.612 40.2501C141.115 40.8151 143.865 41.9451 145.861 43.6402C147.895 45.2976 148.912 47.7271 148.912 50.9289C148.912 53.076 148.517 54.997 147.726 56.6921C146.973 58.3872 145.88 59.8374 144.449 61.0427C143.055 62.2481 141.36 63.171 139.364 63.8113C137.367 64.4517 135.126 64.7719 132.64 64.7719C130.267 64.7719 128.195 64.4705 126.425 63.8678C124.654 63.2275 123.185 62.3799 122.018 61.3252C120.888 60.2329 120.04 58.971 119.475 57.5396C118.91 56.1082 118.627 54.5639 118.627 52.9065C118.627 52.4168 118.646 51.9271 118.684 51.4374C118.722 50.9477 118.797 50.4392 118.91 49.9119L119.192 48.6123H126.651L126.425 49.5729C126.274 50.2886 126.199 51.0984 126.199 52.0024C126.199 53.8105 126.764 55.223 127.894 56.2401C129.061 57.2571 130.794 57.7656 133.092 57.7656C135.578 57.7656 137.518 57.2571 138.912 56.2401C140.305 55.1854 141.002 53.754 141.002 51.9459C141.002 50.5146 140.399 49.4034 139.194 48.6123C138.026 47.8213 136.049 47.2186 133.261 46.8043C131.943 46.6159 130.643 46.2769 129.363 45.7872C128.12 45.2976 127.009 44.6195 126.029 43.7532C125.05 42.8868 124.259 41.8321 123.656 40.5891C123.053 39.3084 122.752 37.8016 122.752 36.0689C122.752 34.2985 123.072 32.66 123.713 31.1533C124.391 29.6089 125.37 28.2905 126.651 27.1981C127.969 26.0681 129.57 25.2017 131.453 24.599C133.374 23.9587 135.578 23.6385 138.064 23.6385C140.173 23.6385 142.057 23.9022 143.714 24.4295C145.372 24.9569 146.765 25.6914 147.895 26.6331C149.063 27.5748 149.948 28.7048 150.551 30.0232C151.154 31.3039 151.455 32.6976 151.455 34.2044C151.455 34.6187 151.436 35.0331 151.399 35.4474C151.361 35.8617 151.286 36.3326 151.173 36.8599L150.946 37.877H143.488L143.658 37.1425ZM153.845 24.4295H179.61V31.5488H170.457L165.089 56.8616H174.242V63.9808H148.478V56.8616H157.631L162.999 31.5488H153.845V24.4295ZM189.967 43.9792H207.426V44.6572L203.358 63.9808H196.578L197.538 59.5737H196.521C195.768 61.0427 194.638 62.2858 193.131 63.3028C191.625 64.2822 189.591 64.7719 187.029 64.7719C185.56 64.7719 184.204 64.527 182.961 64.0373C181.718 63.5853 180.644 62.8885 179.74 61.9468C178.836 61.0051 178.121 59.8562 177.593 58.5002C177.104 57.1064 176.859 55.5056 176.859 53.6975C176.859 52.2284 177.047 50.6087 177.424 48.8383L179.401 39.572C180.569 34.1102 182.641 30.0986 185.617 27.5371C188.63 24.9381 192.529 23.6385 197.312 23.6385C199.196 23.6385 200.872 23.9399 202.341 24.5425C203.848 25.1076 205.11 25.8986 206.127 26.9156C207.144 27.9327 207.916 29.1192 208.443 30.4752C209.008 31.7936 209.291 33.2062 209.291 34.7129C209.291 35.2402 209.253 35.8052 209.178 36.4079C209.103 36.9729 209.008 37.5003 208.895 37.99L208.726 38.668H201.268L201.437 37.99C201.55 37.538 201.625 37.1425 201.663 36.8034C201.701 36.4644 201.72 36.1254 201.72 35.7864C201.72 34.2044 201.23 32.9802 200.251 32.1138C199.271 31.2098 197.84 30.7577 195.956 30.7577C194.902 30.7577 193.904 30.9272 192.962 31.2663C192.02 31.6053 191.135 32.1515 190.306 32.9048C189.515 33.6205 188.818 34.581 188.216 35.7864C187.613 36.9541 187.123 38.4043 186.747 40.1371L184.939 48.4993C184.788 49.1773 184.694 49.7424 184.656 50.1944C184.618 50.6464 184.6 51.0984 184.6 51.5504C184.6 53.5845 185.127 55.11 186.182 56.1271C187.236 57.1441 188.668 57.6526 190.476 57.6526C192.698 57.6526 194.506 57.0688 195.9 55.9011C197.331 54.6957 198.254 53.0948 198.668 51.0984H189.967V43.9792ZM223.886 60.2517H224.903L232.53 24.4295H239.65L231.231 63.9808H217.331L219.987 28.1587H218.97L211.342 63.9808H204.279L212.642 24.4295H226.541L223.886 60.2517ZM288.389 37.1425C288.502 36.5774 288.558 36.0689 288.558 35.6169C288.558 34.1479 288.031 32.9613 286.976 32.0573C285.921 31.1156 284.302 30.6447 282.117 30.6447C281.251 30.6447 280.403 30.7389 279.574 30.9272C278.746 31.1156 278.011 31.4169 277.371 31.8313C276.73 32.208 276.222 32.6976 275.845 33.3003C275.469 33.903 275.28 34.5999 275.28 35.3909C275.28 36.7093 275.826 37.7451 276.919 38.4985C278.049 39.2519 279.857 39.8357 282.343 40.2501C285.846 40.8151 288.596 41.9451 290.592 43.6402C292.626 45.2976 293.643 47.7271 293.643 50.9289C293.643 53.076 293.248 54.997 292.457 56.6921C291.703 58.3872 290.611 59.8374 289.18 61.0427C287.786 62.2481 286.091 63.171 284.094 63.8113C282.098 64.4517 279.857 64.7719 277.371 64.7719C274.998 64.7719 272.926 64.4705 271.156 63.8678C269.385 63.2275 267.916 62.3799 266.748 61.3252C265.618 60.2329 264.771 58.971 264.206 57.5396C263.641 56.1082 263.358 54.5639 263.358 52.9065C263.358 52.4168 263.377 51.9271 263.415 51.4374C263.452 50.9477 263.528 50.4392 263.641 49.9119L263.923 48.6123H271.382L271.156 49.5729C271.005 50.2886 270.93 51.0984 270.93 52.0024C270.93 53.8105 271.495 55.223 272.625 56.2401C273.792 57.2571 275.525 57.7656 277.823 57.7656C280.309 57.7656 282.249 57.2571 283.642 56.2401C285.036 55.1854 285.733 53.754 285.733 51.9459C285.733 50.5146 285.13 49.4034 283.925 48.6123C282.757 47.8213 280.78 47.2186 277.992 46.8043C276.674 46.6159 275.374 46.2769 274.094 45.7872C272.851 45.2976 271.739 44.6195 270.76 43.7532C269.781 42.8868 268.99 41.8321 268.387 40.5891C267.784 39.3084 267.483 37.8016 267.483 36.0689C267.483 34.2985 267.803 32.66 268.443 31.1533C269.121 29.6089 270.101 28.2905 271.382 27.1981C272.7 26.0681 274.301 25.2017 276.184 24.599C278.105 23.9587 280.309 23.6385 282.795 23.6385C284.904 23.6385 286.788 23.9022 288.445 24.4295C290.102 24.9569 291.496 25.6914 292.626 26.6331C293.794 27.5748 294.679 28.7048 295.282 30.0232C295.885 31.3039 296.186 32.6976 296.186 34.2044C296.186 34.6187 296.167 35.0331 296.129 35.4474C296.092 35.8617 296.016 36.3326 295.903 36.8599L295.677 37.877H288.219L288.389 37.1425ZM297.164 24.4295H325.641V31.5488H315.131L308.238 63.9808H300.78L307.673 31.5488H297.164V24.4295ZM355.83 24.4295L350.349 50.3074C349.822 52.8688 349.106 55.0535 348.202 56.8616C347.336 58.6697 346.243 60.1764 344.925 61.3817C343.607 62.5495 342.062 63.4158 340.292 63.9808C338.559 64.5082 336.544 64.7719 334.246 64.7719C332.551 64.7719 330.969 64.5082 329.5 63.9808C328.031 63.4912 326.769 62.7755 325.714 61.8338C324.66 60.8544 323.831 59.6679 323.228 58.2741C322.625 56.8428 322.324 55.223 322.324 53.415C322.324 52.8123 322.343 52.2284 322.381 51.6634C322.418 51.0607 322.531 50.3827 322.72 49.6294L328.031 24.4295H335.489L330.008 50.3074C329.933 50.7217 329.858 51.1172 329.782 51.4939C329.745 51.8706 329.726 52.2473 329.726 52.624C329.726 54.2437 330.159 55.5056 331.025 56.4096C331.929 57.3136 333.267 57.7656 335.037 57.7656C337.297 57.7656 339.03 57.1629 340.235 55.9576C341.478 54.7522 342.363 52.8688 342.891 50.3074L348.372 24.4295H355.83ZM358.729 24.4295H382.516V31.5488H364.661L362.74 40.5891H378.73V47.7083H361.215L357.768 63.9808H350.31L358.729 24.4295ZM387.675 24.4295H411.462V31.5488H393.607L391.686 40.5891H407.676V47.7083H390.161L386.714 63.9808H379.256L387.675 24.4295Z" fill="white"/>
</mask>
<g mask="url(#mask0_410_215)">
<path d="M-41.2473 -5.66333L-0.375012 24.7313C13.7047 35.2017 32.9841 35.2018 47.0639 24.7314L64.2167 11.9756C78.2965 1.50524 97.5759 1.50522 111.656 11.9756L128.808 24.7313C142.888 35.2017 162.168 35.2018 176.247 24.7314L193.4 11.9756C207.48 1.50524 226.759 1.50522 240.839 11.9756L257.992 24.7313C272.072 35.2017 291.351 35.2018 305.431 24.7314L322.584 11.9756C336.663 1.50524 355.943 1.50522 370.023 11.9756L387.175 24.7313C401.255 35.2017 420.535 35.2018 434.614 24.7314L475.487 -5.66333" stroke="url(#paint0_linear_410_215)" stroke-width="3.61352"/>
<path d="M-41.2473 8.29718L-0.375012 38.6919C13.7047 49.1622 32.9841 49.1623 47.0639 38.6919L64.2167 25.9361C78.2965 15.4657 97.5759 15.4657 111.656 25.9361L128.808 38.6919C142.888 49.1622 162.168 49.1623 176.247 38.6919L193.4 25.9361C207.48 15.4657 226.759 15.4657 240.839 25.9361L257.992 38.6919C272.072 49.1622 291.351 49.1623 305.431 38.6919L322.584 25.9361C336.663 15.4657 355.943 15.4657 370.023 25.9361L387.175 38.6919C401.255 49.1622 420.535 49.1623 434.614 38.6919L475.487 8.29718" stroke="url(#paint1_linear_410_215)" stroke-width="3.61352"/>
<path d="M-41.2473 36.2182L-0.375012 66.6129C13.7047 77.0833 32.9841 77.0833 47.0639 66.6129L64.2167 53.8572C78.2965 43.3868 97.5759 43.3868 111.656 53.8572L128.808 66.6129C142.888 77.0833 162.168 77.0833 176.247 66.6129L193.4 53.8572C207.48 43.3868 226.759 43.3868 240.839 53.8572L257.992 66.6129C272.072 77.0833 291.351 77.0833 305.431 66.6129L322.584 53.8572C336.663 43.3868 355.943 43.3868 370.023 53.8572L387.175 66.6129C401.255 77.0833 420.535 77.0833 434.614 66.6129L475.487 36.2182" stroke="url(#paint2_linear_410_215)" stroke-width="3.61352"/>
<path d="M-41.2473 50.1787L-0.375012 80.5734C13.7047 91.0438 32.9841 91.0438 47.0639 80.5734L64.2167 67.8177C78.2965 57.3473 97.5759 57.3473 111.656 67.8177L128.808 80.5734C142.888 91.0438 162.168 91.0438 176.247 80.5734L193.4 67.8177C207.48 57.3473 226.759 57.3473 240.839 67.8177L257.992 80.5734C272.072 91.0438 291.351 91.0438 305.431 80.5734L322.584 67.8177C336.663 57.3473 355.943 57.3473 370.023 67.8177L387.175 80.5734C401.255 91.0438 420.535 91.0438 434.614 80.5734L475.487 50.1787" stroke="url(#paint3_linear_410_215)" stroke-width="3.61352"/>
<g filter="url(#filter0_f_410_215)">
<path d="M-41.2473 -5.66333L-0.375012 24.7313C13.7047 35.2017 32.9841 35.2018 47.0639 24.7314L64.2167 11.9756C78.2965 1.50524 97.5759 1.50522 111.656 11.9756L128.808 24.7313C142.888 35.2017 162.168 35.2018 176.247 24.7314L193.4 11.9756C207.48 1.50524 226.759 1.50522 240.839 11.9756L257.992 24.7313C272.072 35.2017 291.351 35.2018 305.431 24.7314L322.584 11.9756C336.663 1.50524 355.943 1.50522 370.023 11.9756L387.175 24.7313C401.255 35.2017 420.535 35.2018 434.614 24.7314L475.487 -5.66333" stroke="url(#paint4_linear_410_215)" stroke-width="3.61352"/>
<path d="M-41.2473 8.29718L-0.375012 38.6919C13.7047 49.1622 32.9841 49.1623 47.0639 38.6919L64.2167 25.9361C78.2965 15.4657 97.5759 15.4657 111.656 25.9361L128.808 38.6919C142.888 49.1622 162.168 49.1623 176.247 38.6919L193.4 25.9361C207.48 15.4657 226.759 15.4657 240.839 25.9361L257.992 38.6919C272.072 49.1622 291.351 49.1623 305.431 38.6919L322.584 25.9361C336.663 15.4657 355.943 15.4657 370.023 25.9361L387.175 38.6919C401.255 49.1622 420.535 49.1623 434.614 38.6919L475.487 8.29718" stroke="url(#paint5_linear_410_215)" stroke-width="3.61352"/>
<path d="M-41.2473 36.2182L-0.375012 66.6129C13.7047 77.0833 32.9841 77.0833 47.0639 66.6129L64.2167 53.8572C78.2965 43.3868 97.5759 43.3868 111.656 53.8572L128.808 66.6129C142.888 77.0833 162.168 77.0833 176.247 66.6129L193.4 53.8572C207.48 43.3868 226.759 43.3868 240.839 53.8572L257.992 66.6129C272.072 77.0833 291.351 77.0833 305.431 66.6129L322.584 53.8572C336.663 43.3868 355.943 43.3868 370.023 53.8572L387.175 66.6129C401.255 77.0833 420.535 77.0833 434.614 66.6129L475.487 36.2182" stroke="url(#paint6_linear_410_215)" stroke-width="3.61352"/>
<path d="M-41.2473 50.1787L-0.375012 80.5734C13.7047 91.0438 32.9841 91.0438 47.0639 80.5734L64.2167 67.8177C78.2965 57.3473 97.5759 57.3473 111.656 67.8177L128.808 80.5734C142.888 91.0438 162.168 91.0438 176.247 80.5734L193.4 67.8177C207.48 57.3473 226.759 57.3473 240.839 67.8177L257.992 80.5734C272.072 91.0438 291.351 91.0438 305.431 80.5734L322.584 67.8177C336.663 57.3473 355.943 57.3473 370.023 67.8177L387.175 80.5734C401.255 91.0438 420.535 91.0438 434.614 80.5734L475.487 50.1787" stroke="url(#paint7_linear_410_215)" stroke-width="3.61352"/>
</g>
<g filter="url(#filter1_f_410_215)">
<path d="M-41.2473 -5.66333L-0.375012 24.7313C13.7047 35.2017 32.9841 35.2018 47.0639 24.7314L64.2167 11.9756C78.2965 1.50524 97.5759 1.50522 111.656 11.9756L128.808 24.7313C142.888 35.2017 162.168 35.2018 176.247 24.7314L193.4 11.9756C207.48 1.50524 226.759 1.50522 240.839 11.9756L257.992 24.7313C272.072 35.2017 291.351 35.2018 305.431 24.7314L322.584 11.9756C336.663 1.50524 355.943 1.50522 370.023 11.9756L387.175 24.7313C401.255 35.2017 420.535 35.2018 434.614 24.7314L475.487 -5.66333" stroke="url(#paint8_linear_410_215)" stroke-width="3.61352"/>
<path d="M-41.2473 8.29718L-0.375012 38.6919C13.7047 49.1622 32.9841 49.1623 47.0639 38.6919L64.2167 25.9361C78.2965 15.4657 97.5759 15.4657 111.656 25.9361L128.808 38.6919C142.888 49.1622 162.168 49.1623 176.247 38.6919L193.4 25.9361C207.48 15.4657 226.759 15.4657 240.839 25.9361L257.992 38.6919C272.072 49.1622 291.351 49.1623 305.431 38.6919L322.584 25.9361C336.663 15.4657 355.943 15.4657 370.023 25.9361L387.175 38.6919C401.255 49.1622 420.535 49.1623 434.614 38.6919L475.487 8.29718" stroke="url(#paint9_linear_410_215)" stroke-width="3.61352"/>
<path d="M-41.2473 36.2182L-0.375012 66.6129C13.7047 77.0833 32.9841 77.0833 47.0639 66.6129L64.2167 53.8572C78.2965 43.3868 97.5759 43.3868 111.656 53.8572L128.808 66.6129C142.888 77.0833 162.168 77.0833 176.247 66.6129L193.4 53.8572C207.48 43.3868 226.759 43.3868 240.839 53.8572L257.992 66.6129C272.072 77.0833 291.351 77.0833 305.431 66.6129L322.584 53.8572C336.663 43.3868 355.943 43.3868 370.023 53.8572L387.175 66.6129C401.255 77.0833 420.535 77.0833 434.614 66.6129L475.487 36.2182" stroke="url(#paint10_linear_410_215)" stroke-width="3.61352"/>
<path d="M-41.2473 50.1787L-0.375012 80.5734C13.7047 91.0438 32.9841 91.0438 47.0639 80.5734L64.2167 67.8177C78.2965 57.3473 97.5759 57.3473 111.656 67.8177L128.808 80.5734C142.888 91.0438 162.168 91.0438 176.247 80.5734L193.4 67.8177C207.48 57.3473 226.759 57.3473 240.839 67.8177L257.992 80.5734C272.072 91.0438 291.351 91.0438 305.431 80.5734L322.584 67.8177C336.663 57.3473 355.943 57.3473 370.023 67.8177L387.175 80.5734C401.255 91.0438 420.535 91.0438 434.614 80.5734L475.487 50.1787" stroke="url(#paint11_linear_410_215)" stroke-width="3.61352"/>
</g>
</g>
<mask id="mask1_410_215" style="mask-type:alpha" maskUnits="userSpaceOnUse" x="443" y="23" width="403" height="42">
<path d="M443.835 24.4763H470.246V31.5871H460.765V56.87H470.246V63.9808H443.835V56.87H453.316V31.5871H443.835V24.4763ZM514.977 57.9987C516.407 57.9987 517.573 57.7918 518.476 57.3779C519.417 56.9265 520.132 56.3433 520.621 55.6285C521.148 54.876 521.505 54.0295 521.693 53.0889C521.881 52.1107 521.975 51.1136 521.975 50.0978V49.082H529.425V50.0978C529.425 54.8007 528.183 58.4314 525.7 60.9898C523.255 63.5105 519.68 64.7709 514.977 64.7709C510.463 64.7709 506.888 63.3977 504.255 60.6512C501.621 57.9047 500.304 53.8978 500.304 48.6305V39.8266C500.304 37.3059 500.643 35.0485 501.32 33.0544C501.997 31.0228 502.976 29.3297 504.255 27.9753C505.534 26.5832 507.076 25.5298 508.882 24.8149C510.688 24.0625 512.72 23.6862 514.977 23.6862C517.31 23.6862 519.379 24.0248 521.185 24.7021C522.991 25.3793 524.496 26.3575 525.7 27.6367C526.942 28.9159 527.863 30.4584 528.465 32.2643C529.105 34.0703 529.425 36.1019 529.425 38.3593V39.3752H521.975V38.3593C521.975 37.4187 521.862 36.4782 521.637 35.5376C521.411 34.597 521.035 33.7505 520.508 32.998C519.981 32.2455 519.266 31.6436 518.363 31.1921C517.461 30.703 516.332 30.4584 514.977 30.4584C513.736 30.4584 512.664 30.703 511.761 31.1921C510.858 31.6436 510.105 32.2832 509.503 33.1109C508.901 33.901 508.45 34.8415 508.149 35.9326C507.885 36.9861 507.754 38.096 507.754 39.2623V49.1949C507.754 50.474 507.885 51.6592 508.149 52.7503C508.412 53.8037 508.826 54.7255 509.39 55.5156C509.955 56.3057 510.688 56.9265 511.591 57.3779C512.532 57.7918 513.661 57.9987 514.977 57.9987ZM557.152 63.9808H549.702V52.1295C549.702 51.2265 549.458 50.4929 548.968 49.9285C548.517 49.3642 547.746 49.082 546.655 49.082H538.077V63.9808H530.627V24.4763H545.752C547.783 24.4763 549.57 24.7585 551.113 25.3228C552.656 25.8872 553.935 26.6773 554.951 27.6931C556.004 28.6713 556.794 29.8188 557.321 31.1356C557.885 32.4525 558.167 33.8633 558.167 35.3683V36.7227C558.167 38.3405 557.735 39.8643 556.869 41.294C556.004 42.686 554.668 43.7583 552.862 44.5107V45.5266C554.179 45.6771 555.214 46.185 555.966 47.0503C556.757 47.9157 557.152 49.0067 557.152 50.3236V63.9808ZM538.077 41.9712H545.187C546.993 41.9712 548.366 41.5573 549.307 40.7296C550.248 39.8643 550.718 38.6603 550.718 37.1178V36.4405C550.718 35.1237 550.248 33.995 549.307 33.0544C548.366 32.0762 546.993 31.5871 545.187 31.5871H538.077V41.9712ZM560.047 24.4763H584.991V31.5871H567.496V40.6167H584.314V47.7275H567.496V56.87H585.668V63.9808H560.047V24.4763ZM608.316 55.5156H594.885L592.966 63.9808H585.178L594.602 24.4763H608.598L618.023 63.9808H610.235L608.316 55.5156ZM596.465 48.4048H606.679L602.108 28.201H601.092L596.465 48.4048ZM616.291 24.4763H644.734V31.5871H634.237V63.9808H626.788V31.5871H616.291V24.4763ZM646.783 24.4763H671.727V31.5871H654.232V40.6167H671.05V47.7275H654.232V56.87H672.404V63.9808H646.783V24.4763ZM724.02 36.5534C724.02 34.9732 723.399 33.6 722.158 32.4337C720.954 31.2673 719.242 30.6842 717.022 30.6842C715.141 30.6842 713.655 31.0792 712.564 31.8693C711.473 32.6218 710.927 33.6564 710.927 34.9732C710.927 35.6504 711.059 36.2712 711.322 36.8356C711.586 37.3623 712.037 37.8514 712.677 38.3029C713.354 38.7168 714.219 39.093 715.273 39.4316C716.364 39.7702 717.737 40.09 719.393 40.391C723.531 41.1435 726.692 42.4038 728.874 44.1721C731.056 45.9404 732.147 48.5553 732.147 52.0166V52.6938C732.147 54.5374 731.808 56.2116 731.131 57.7165C730.491 59.1839 729.551 60.4442 728.309 61.4977C727.068 62.5511 725.563 63.36 723.795 63.9244C722.026 64.4888 720.032 64.7709 717.812 64.7709C715.216 64.7709 712.921 64.4135 710.927 63.6987C708.971 62.9462 707.334 61.9304 706.017 60.6512C704.701 59.3344 703.704 57.8106 703.026 56.0799C702.349 54.3116 702.011 52.3928 702.011 50.3236V48.6305H709.46V49.9849C709.46 52.3552 710.137 54.2552 711.492 55.6849C712.884 57.0769 715.028 57.773 717.925 57.773C720.183 57.773 721.857 57.2839 722.948 56.3057C724.039 55.3275 724.585 54.1611 724.585 52.8067C724.585 52.1671 724.472 51.5651 724.246 51.0008C724.02 50.3988 723.625 49.8721 723.061 49.4206C722.497 48.9315 721.725 48.4988 720.747 48.1226C719.769 47.7464 718.527 47.4266 717.022 47.1632C715.028 46.8246 713.204 46.3919 711.548 45.8652C709.893 45.3008 708.444 44.5672 707.203 43.6642C705.999 42.7613 705.058 41.6326 704.381 40.2781C703.704 38.9237 703.365 37.2683 703.365 35.3118V34.9732C703.365 33.3554 703.685 31.8693 704.324 30.5149C705.002 29.1228 705.923 27.9188 707.09 26.903C708.294 25.8872 709.723 25.0971 711.379 24.5327C713.072 23.9684 714.953 23.6862 717.022 23.6862C719.355 23.6862 721.424 24.0248 723.23 24.7021C725.036 25.3416 726.541 26.2258 727.745 27.3545C728.987 28.4832 729.908 29.7812 730.51 31.2485C731.15 32.7158 731.47 34.2584 731.47 35.8762V37.9078H724.02V36.5534ZM731.938 24.4763H760.382V31.5871H749.885V63.9808H742.435V31.5871H731.938V24.4763ZM789.294 24.4763V50.3236C789.294 54.8384 788.09 58.375 785.682 60.9333C783.311 63.4917 779.775 64.7709 775.072 64.7709C770.369 64.7709 766.814 63.4917 764.406 60.9333C762.035 58.375 760.85 54.8384 760.85 50.3236V24.4763H768.3V50.3236C768.3 52.6562 768.845 54.4809 769.936 55.7978C771.027 57.1146 772.739 57.773 775.072 57.773C777.405 57.773 779.116 57.1146 780.208 55.7978C781.299 54.4809 781.844 52.6562 781.844 50.3236V24.4763H789.294ZM791.681 24.4763H816.964V31.5871H799.13V40.6167H816.625V47.7275H799.13V63.9808H791.681V24.4763ZM820.593 24.4763H845.876V31.5871H828.042V40.6167H845.537V47.7275H828.042V63.9808H820.593V24.4763Z" fill="white"/>
</mask>
<g mask="url(#mask1_410_215)">
<path d="M367.863 -13.1183L413.095 20.5186C428.677 32.1058 450.013 32.1058 465.594 20.5186L484.577 6.40222C500.159 -5.18503 521.494 -5.18504 537.076 6.40221L556.059 20.5186C571.64 32.1058 592.976 32.1058 608.558 20.5186L627.54 6.40222C643.122 -5.18503 664.458 -5.18504 680.039 6.40221L699.022 20.5186C714.603 32.1058 735.939 32.1058 751.521 20.5186L770.503 6.40222C786.085 -5.18503 807.421 -5.18504 823.003 6.40221L841.985 20.5186C857.567 32.1058 878.903 32.1058 894.484 20.5186L939.716 -13.1183" stroke="url(#paint12_linear_410_215)" stroke-width="3.99897"/>
<path d="M367.863 2.33136L413.095 35.9682C428.677 47.5554 450.013 47.5554 465.594 35.9682L484.577 21.8518C500.159 10.2646 521.494 10.2646 537.076 21.8518L556.059 35.9682C571.64 47.5554 592.976 47.5554 608.558 35.9682L627.54 21.8518C643.122 10.2646 664.458 10.2646 680.039 21.8518L699.022 35.9682C714.603 47.5554 735.939 47.5554 751.521 35.9682L770.503 21.8518C786.085 10.2646 807.421 10.2646 823.003 21.8518L841.985 35.9682C857.567 47.5554 878.903 47.5554 894.484 35.9682L939.716 2.33136" stroke="url(#paint13_linear_410_215)" stroke-width="3.99897"/>
<path d="M367.863 17.781L413.095 51.4179C428.677 63.0051 450.013 63.0051 465.594 51.4179L484.577 37.3015C500.159 25.7143 521.494 25.7143 537.076 37.3015L556.059 51.4179C571.64 63.0051 592.976 63.0051 608.558 51.4179L627.54 37.3015C643.122 25.7143 664.458 25.7143 680.039 37.3015L699.022 51.4179C714.603 63.0051 735.939 63.0051 751.521 51.4179L770.503 37.3015C786.085 25.7143 807.421 25.7143 823.003 37.3015L841.985 51.4179C857.567 63.0051 878.903 63.0051 894.484 51.4179L939.716 17.781" stroke="url(#paint14_linear_410_215)" stroke-width="3.99897"/>
<path d="M367.863 48.6804L413.095 82.3172C428.677 93.9044 450.013 93.9044 465.594 82.3172L484.577 68.2008C500.159 56.6136 521.494 56.6136 537.076 68.2008L556.059 82.3172C571.64 93.9044 592.976 93.9044 608.558 82.3172L627.54 68.2008C643.122 56.6136 664.458 56.6136 680.039 68.2008L699.022 82.3172C714.603 93.9044 735.939 93.9044 751.521 82.3172L770.503 68.2008C786.085 56.6136 807.421 56.6136 823.003 68.2008L841.985 82.3172C857.567 93.9044 878.903 93.9044 894.484 82.3172L939.716 48.6804" stroke="url(#paint15_linear_410_215)" stroke-width="3.99897"/>
<path d="M367.863 64.13L413.095 97.7668C428.677 109.354 450.013 109.354 465.594 97.7668L484.577 83.6505C500.159 72.0632 521.494 72.0632 537.076 83.6505L556.059 97.7668C571.64 109.354 592.976 109.354 608.558 97.7668L627.54 83.6505C643.122 72.0632 664.458 72.0632 680.039 83.6505L699.022 97.7668C714.603 109.354 735.939 109.354 751.521 97.7668L770.503 83.6505C786.085 72.0632 807.421 72.0632 823.003 83.6505L841.985 97.7668C857.567 109.354 878.903 109.354 894.484 97.7668L939.716 64.13" stroke="url(#paint16_linear_410_215)" stroke-width="3.99897"/>
<g filter="url(#filter2_f_410_215)">
<path d="M367.863 -13.1183L413.095 20.5185C428.677 32.1057 450.013 32.1058 465.594 20.5185L484.577 6.40216C500.159 -5.18509 521.494 -5.1851 537.076 6.40215L556.059 20.5185C571.64 32.1057 592.976 32.1058 608.558 20.5185L627.54 6.40216C643.122 -5.18509 664.458 -5.1851 680.039 6.40215L699.022 20.5185C714.603 32.1057 735.939 32.1058 751.521 20.5185L770.503 6.40216C786.085 -5.18509 807.421 -5.1851 823.003 6.40215L841.985 20.5185C857.567 32.1057 878.903 32.1058 894.484 20.5185L939.716 -13.1183" stroke="url(#paint17_linear_410_215)" stroke-width="3.99897"/>
<path d="M367.863 2.33136L413.095 35.9682C428.677 47.5554 450.013 47.5554 465.594 35.9682L484.577 21.8518C500.159 10.2646 521.494 10.2646 537.076 21.8518L556.059 35.9682C571.64 47.5554 592.976 47.5554 608.558 35.9682L627.54 21.8518C643.122 10.2646 664.458 10.2646 680.039 21.8518L699.022 35.9682C714.603 47.5554 735.939 47.5554 751.521 35.9682L770.503 21.8518C786.085 10.2646 807.421 10.2646 823.003 21.8518L841.985 35.9682C857.567 47.5554 878.903 47.5554 894.484 35.9682L939.716 2.33136" stroke="url(#paint18_linear_410_215)" stroke-width="3.99897"/>
<path d="M367.863 17.781L413.095 51.4178C428.677 63.0051 450.013 63.0051 465.594 51.4178L484.577 37.3015C500.159 25.7142 521.494 25.7142 537.076 37.3015L556.059 51.4178C571.64 63.0051 592.976 63.0051 608.558 51.4178L627.54 37.3015C643.122 25.7142 664.458 25.7142 680.039 37.3015L699.022 51.4178C714.603 63.0051 735.939 63.0051 751.521 51.4178L770.503 37.3015C786.085 25.7142 807.421 25.7142 823.003 37.3015L841.985 51.4178C857.567 63.0051 878.903 63.0051 894.484 51.4178L939.716 17.781" stroke="url(#paint19_linear_410_215)" stroke-width="3.99897"/>
<path d="M367.863 48.6803L413.095 82.3171C428.677 93.9044 450.013 93.9044 465.594 82.3172L484.577 68.2008C500.159 56.6136 521.494 56.6135 537.076 68.2008L556.059 82.3171C571.64 93.9044 592.976 93.9044 608.558 82.3172L627.54 68.2008C643.122 56.6136 664.458 56.6135 680.039 68.2008L699.022 82.3171C714.603 93.9044 735.939 93.9044 751.521 82.3172L770.503 68.2008C786.085 56.6136 807.421 56.6135 823.003 68.2008L841.985 82.3171C857.567 93.9044 878.903 93.9044 894.484 82.3172L939.716 48.6803" stroke="url(#paint20_linear_410_215)" stroke-width="3.99897"/>
<path d="M367.863 64.1299L413.095 97.7668C428.677 109.354 450.013 109.354 465.594 97.7668L484.577 83.6504C500.159 72.0632 521.494 72.0632 537.076 83.6504L556.059 97.7668C571.64 109.354 592.976 109.354 608.558 97.7668L627.54 83.6504C643.122 72.0632 664.458 72.0632 680.039 83.6504L699.022 97.7668C714.603 109.354 735.939 109.354 751.521 97.7668L770.503 83.6504C786.085 72.0632 807.421 72.0632 823.003 83.6504L841.985 97.7668C857.567 109.354 878.903 109.354 894.484 97.7668L939.716 64.1299" stroke="url(#paint21_linear_410_215)" stroke-width="3.99897"/>
</g>
<g filter="url(#filter3_f_410_215)">
<path d="M367.863 -13.1183L413.095 20.5185C428.677 32.1057 450.013 32.1058 465.594 20.5185L484.577 6.40216C500.159 -5.18509 521.494 -5.1851 537.076 6.40215L556.059 20.5185C571.64 32.1057 592.976 32.1058 608.558 20.5185L627.54 6.40216C643.122 -5.18509 664.458 -5.1851 680.039 6.40215L699.022 20.5185C714.603 32.1057 735.939 32.1058 751.521 20.5185L770.503 6.40216C786.085 -5.18509 807.421 -5.1851 823.003 6.40215L841.985 20.5185C857.567 32.1057 878.903 32.1058 894.484 20.5185L939.716 -13.1183" stroke="url(#paint22_linear_410_215)" stroke-width="3.99897"/>
<path d="M367.863 2.33136L413.095 35.9682C428.677 47.5554 450.013 47.5554 465.594 35.9682L484.577 21.8518C500.159 10.2646 521.494 10.2646 537.076 21.8518L556.059 35.9682C571.64 47.5554 592.976 47.5554 608.558 35.9682L627.54 21.8518C643.122 10.2646 664.458 10.2646 680.039 21.8518L699.022 35.9682C714.603 47.5554 735.939 47.5554 751.521 35.9682L770.503 21.8518C786.085 10.2646 807.421 10.2646 823.003 21.8518L841.985 35.9682C857.567 47.5554 878.903 47.5554 894.484 35.9682L939.716 2.33136" stroke="url(#paint23_linear_410_215)" stroke-width="3.99897"/>
<path d="M367.863 17.781L413.095 51.4178C428.677 63.0051 450.013 63.0051 465.594 51.4178L484.577 37.3015C500.159 25.7142 521.494 25.7142 537.076 37.3015L556.059 51.4178C571.64 63.0051 592.976 63.0051 608.558 51.4178L627.54 37.3015C643.122 25.7142 664.458 25.7142 680.039 37.3015L699.022 51.4178C714.603 63.0051 735.939 63.0051 751.521 51.4178L770.503 37.3015C786.085 25.7142 807.421 25.7142 823.003 37.3015L841.985 51.4178C857.567 63.0051 878.903 63.0051 894.484 51.4178L939.716 17.781" stroke="url(#paint24_linear_410_215)" stroke-width="3.99897"/>
<path d="M367.863 48.6803L413.095 82.3171C428.677 93.9044 450.013 93.9044 465.594 82.3172L484.577 68.2008C500.159 56.6136 521.494 56.6135 537.076 68.2008L556.059 82.3171C571.64 93.9044 592.976 93.9044 608.558 82.3172L627.54 68.2008C643.122 56.6136 664.458 56.6135 680.039 68.2008L699.022 82.3171C714.603 93.9044 735.939 93.9044 751.521 82.3172L770.503 68.2008C786.085 56.6136 807.421 56.6135 823.003 68.2008L841.985 82.3171C857.567 93.9044 878.903 93.9044 894.484 82.3172L939.716 48.6803" stroke="url(#paint25_linear_410_215)" stroke-width="3.99897"/>
<path d="M367.863 64.1299L413.095 97.7668C428.677 109.354 450.013 109.354 465.594 97.7668L484.577 83.6504C500.159 72.0632 521.494 72.0632 537.076 83.6504L556.059 97.7668C571.64 109.354 592.976 109.354 608.558 97.7668L627.54 83.6504C643.122 72.0632 664.458 72.0632 680.039 83.6504L699.022 97.7668C714.603 109.354 735.939 109.354 751.521 97.7668L770.503 83.6504C786.085 72.0632 807.421 72.0632 823.003 83.6504L841.985 97.7668C857.567 109.354 878.903 109.354 894.484 97.7668L939.716 64.1299" stroke="url(#paint26_linear_410_215)" stroke-width="3.99897"/>
</g>
</g>
<mask id="mask2_410_215" style="mask-type:alpha" maskUnits="userSpaceOnUse" x="878" y="22" width="409" height="39">
<path d="M883.765 23.0625H907.815V29.7078H899.271L894.261 53.3355H902.805V59.9808H878.755V53.3355H887.299L892.309 29.7078H883.765V23.0625ZM936.643 23.0625H950.62C954.206 23.0625 956.984 23.9767 958.953 25.805C960.922 27.5982 961.906 29.9891 961.906 32.9777C961.906 33.47 961.871 33.9798 961.801 34.5072C961.73 35.0346 961.642 35.5796 961.537 36.1421L959.216 47.2176C958.724 49.4679 958.056 51.4017 957.212 53.0191C956.368 54.6013 955.278 55.9198 953.942 56.9746C952.641 57.9943 951.077 58.7502 949.248 59.2425C947.455 59.7347 945.363 59.9808 942.972 59.9808H931.317V53.3355H935.114L940.124 29.7078H936.643V23.0625ZM944.396 53.3355C946.822 53.3355 948.633 52.773 949.828 51.6478C951.059 50.4876 951.92 48.6944 952.413 46.2683L954.575 36.1421C954.645 35.8609 954.698 35.5444 954.733 35.1928C954.804 34.8061 954.839 34.4545 954.839 34.138C954.839 32.6964 954.399 31.6065 953.52 30.8681C952.641 30.0946 951.27 29.7078 949.407 29.7078H947.086L942.076 53.3355H944.396ZM959.18 59.3479L966.88 23.0625H988.767V29.7078H972.417L970.624 38.1463H984.917V44.7916H969.2L967.407 53.3355H982.966V59.9808H959.18V59.3479ZM988.414 23.0625H995.481L996.694 56.5H997.643L1011.83 23.0625H1019.11V23.6954L1003.18 59.9808H990.207L988.414 23.0625ZM1013.22 59.3479L1020.92 23.0625H1042.81V29.7078H1026.46L1024.66 38.1463H1038.96V44.7916H1023.24L1021.45 53.3355H1037V59.9808H1013.22V59.3479ZM1040.08 59.3479L1047.78 23.0625H1054.74L1048.31 53.3355H1064.34V59.9808H1040.08V59.3479ZM1069.74 37.4079C1070.83 32.2042 1072.64 28.3893 1075.17 25.9632C1077.73 23.5372 1081.25 22.3241 1085.72 22.3241C1087.58 22.3241 1089.23 22.623 1090.67 23.2207C1092.11 23.7833 1093.33 24.592 1094.31 25.6468C1095.3 26.6664 1096.04 27.8795 1096.53 29.2859C1097.05 30.6923 1097.32 32.2042 1097.32 33.8216C1097.32 34.4193 1097.28 35.017 1097.21 35.6147C1097.18 36.2125 1097.09 36.8102 1096.95 37.4079L1095.21 45.6354C1094.12 50.8392 1092.29 54.654 1089.72 57.0801C1087.19 59.5062 1083.69 60.7192 1079.23 60.7192C1077.36 60.7192 1075.71 60.4379 1074.27 59.8754C1072.83 59.2776 1071.62 58.4689 1070.63 57.4493C1069.65 56.3945 1068.89 55.1815 1068.36 53.8102C1067.87 52.4038 1067.63 50.8743 1067.63 49.2218C1067.63 48.6241 1067.64 48.0263 1067.68 47.4286C1067.75 46.8309 1067.85 46.2332 1067.99 45.6354L1069.74 37.4079ZM1079.86 54.3903C1081.06 54.3903 1082.11 54.1794 1083.03 53.7575C1083.94 53.3004 1084.73 52.7027 1085.4 51.9643C1086.1 51.2259 1086.66 50.3469 1087.09 49.3273C1087.54 48.3076 1087.9 47.2176 1088.14 46.0574L1090.09 36.986C1090.2 36.4234 1090.27 35.9488 1090.3 35.562C1090.37 35.1401 1090.41 34.7357 1090.41 34.349C1090.41 32.5558 1089.93 31.167 1088.99 30.1825C1088.07 29.1628 1086.77 28.653 1085.08 28.653C1083.89 28.653 1082.83 28.8815 1081.92 29.3386C1081 29.7606 1080.2 30.3407 1079.49 31.0791C1078.82 31.8174 1078.26 32.6964 1077.8 33.7161C1077.38 34.7357 1077.05 35.8257 1076.8 36.986L1074.85 46.0574C1074.64 47.0067 1074.53 47.8857 1074.53 48.6944C1074.53 50.4876 1074.99 51.894 1075.91 52.9136C1076.86 53.8981 1078.17 54.3903 1079.86 54.3903ZM1103.19 46.0574L1100.24 59.9808H1093.33L1101.13 23.0625H1114.32C1115.86 23.0625 1117.25 23.3086 1118.48 23.8009C1119.75 24.2931 1120.82 24.9788 1121.7 25.8578C1122.58 26.7368 1123.25 27.774 1123.7 28.9694C1124.2 30.1649 1124.44 31.4658 1124.44 32.8722C1124.44 34.8412 1124.11 36.6344 1123.44 38.2518C1122.77 39.8691 1121.82 41.258 1120.59 42.4183C1119.36 43.5786 1117.89 44.4751 1116.16 45.108C1114.44 45.7409 1112.52 46.0574 1110.41 46.0574H1103.19ZM1104.61 39.4121H1111.05C1112.84 39.4121 1114.33 38.8847 1115.53 37.8298C1116.73 36.775 1117.32 35.4038 1117.32 33.7161C1117.32 32.4152 1116.9 31.4307 1116.06 30.7626C1115.25 30.0594 1114.18 29.7078 1112.84 29.7078H1106.67L1104.61 39.4121ZM1171.47 34.9291C1171.57 34.4017 1171.63 33.927 1171.63 33.5051C1171.63 32.1339 1171.13 31.0263 1170.15 30.1825C1169.16 29.3035 1167.65 28.864 1165.61 28.864C1164.8 28.864 1164.01 28.9519 1163.24 29.1277C1162.47 29.3035 1161.78 29.5848 1161.18 29.9715C1160.58 30.3231 1160.11 30.7802 1159.76 31.3428C1159.41 31.9053 1159.23 32.5558 1159.23 33.2942C1159.23 34.5248 1159.74 35.4917 1160.76 36.1949C1161.82 36.8981 1163.5 37.4431 1165.82 37.8298C1169.09 38.3572 1171.66 39.4121 1173.52 40.9943C1175.42 42.5413 1176.37 44.8092 1176.37 47.7978C1176.37 49.8019 1176 51.5951 1175.26 53.1773C1174.56 54.7595 1173.54 56.1132 1172.21 57.2383C1170.9 58.3635 1169.32 59.2249 1167.46 59.8226C1165.6 60.4203 1163.5 60.7192 1161.18 60.7192C1158.97 60.7192 1157.03 60.4379 1155.38 59.8754C1153.73 59.2776 1152.36 58.4865 1151.27 57.502C1150.21 56.4824 1149.42 55.3045 1148.89 53.9684C1148.37 52.6323 1148.1 51.1908 1148.1 49.6437C1148.1 49.1866 1148.12 48.7295 1148.16 48.2725C1148.19 47.8154 1148.26 47.3407 1148.37 46.8485L1148.63 45.6354H1155.59L1155.38 46.532C1155.24 47.2001 1155.17 47.956 1155.17 48.7999C1155.17 50.4876 1155.7 51.8061 1156.75 52.7554C1157.84 53.7047 1159.46 54.1794 1161.6 54.1794C1163.93 54.1794 1165.74 53.7047 1167.04 52.7554C1168.34 51.7709 1168.99 50.4348 1168.99 48.7471C1168.99 47.411 1168.43 46.3738 1167.3 45.6354C1166.21 44.8971 1164.36 44.3345 1161.76 43.9477C1160.53 43.7719 1159.32 43.4555 1158.12 42.9984C1156.96 42.5413 1155.93 41.9084 1155.01 41.0998C1154.1 40.2911 1153.36 39.3066 1152.8 38.1463C1152.23 36.9508 1151.95 35.5444 1151.95 33.927C1151.95 32.2745 1152.25 30.745 1152.85 29.3386C1153.48 27.8971 1154.4 26.6664 1155.59 25.6468C1156.82 24.592 1158.32 23.7833 1160.08 23.2207C1161.87 22.623 1163.93 22.3241 1166.25 22.3241C1168.21 22.3241 1169.97 22.5703 1171.52 23.0625C1173.07 23.5548 1174.37 24.2404 1175.42 25.1194C1176.51 25.9984 1177.34 27.0532 1177.9 28.2838C1178.46 29.4793 1178.75 30.7802 1178.75 32.1866C1178.75 32.5734 1178.73 32.9601 1178.69 33.3469C1178.66 33.7337 1178.59 34.1732 1178.48 34.6654L1178.27 35.6147H1171.31L1171.47 34.9291ZM1179.66 23.0625H1206.24V29.7078H1196.43L1189.99 59.9808H1183.03L1189.47 29.7078H1179.66V23.0625ZM1234.42 23.0625L1229.3 47.2176C1228.81 49.6085 1228.14 51.6478 1227.3 53.3355C1226.49 55.0232 1225.47 56.4296 1224.24 57.5548C1223.01 58.6447 1221.57 59.4534 1219.91 59.9808C1218.3 60.4731 1216.42 60.7192 1214.27 60.7192C1212.69 60.7192 1211.21 60.4731 1209.84 59.9808C1208.47 59.5238 1207.29 58.8557 1206.31 57.9767C1205.32 57.0625 1204.55 55.955 1203.99 54.654C1203.42 53.318 1203.14 51.8061 1203.14 50.1184C1203.14 49.5558 1203.16 49.0108 1203.2 48.4834C1203.23 47.9209 1203.34 47.288 1203.51 46.5848L1208.47 23.0625H1215.43L1210.32 47.2176C1210.25 47.6044 1210.18 47.9736 1210.11 48.3252C1210.07 48.6768 1210.05 49.0284 1210.05 49.38C1210.05 50.8919 1210.46 52.0698 1211.27 52.9136C1212.11 53.7575 1213.36 54.1794 1215.01 54.1794C1217.12 54.1794 1218.74 53.6168 1219.86 52.4917C1221.02 51.3666 1221.85 49.6085 1222.34 47.2176L1227.46 23.0625H1234.42ZM1237.12 23.0625H1259.33V29.7078H1242.66L1240.87 38.1463H1255.79V44.7916H1239.44L1236.23 59.9808H1229.27L1237.12 23.0625ZM1264.14 23.0625H1286.35V29.7078H1269.68L1267.89 38.1463H1282.81V44.7916H1266.46L1263.25 59.9808H1256.29L1264.14 23.0625Z" fill="white"/>
</mask>
<g mask="url(#mask2_410_215)">
<path d="M823.69 -1.26001L865.961 30.1748C880.522 41.0035 900.461 41.0034 915.023 30.1748L932.763 16.9825C947.324 6.15383 967.263 6.15385 981.825 16.9825L999.565 30.1748C1014.13 41.0035 1034.07 41.0034 1048.63 30.1748L1066.37 16.9825C1080.93 6.15383 1100.87 6.15385 1115.43 16.9825L1133.17 30.1748C1147.73 41.0035 1167.67 41.0034 1182.23 30.1748L1199.97 16.9825C1214.53 6.15383 1234.47 6.15385 1249.03 16.9825L1266.77 30.1748C1281.33 41.0035 1301.27 41.0034 1315.83 30.1748L1358.11 -1.26001" stroke="url(#paint27_linear_410_215)" stroke-width="3.73718"/>
<path d="M823.69 13.1783L865.961 44.613C880.522 55.4417 900.461 55.4417 915.023 44.613L932.763 31.4208C947.324 20.5921 967.263 20.5921 981.825 31.4208L999.565 44.613C1014.13 55.4417 1034.07 55.4417 1048.63 44.613L1066.37 31.4208C1080.93 20.5921 1100.87 20.5921 1115.43 31.4208L1133.17 44.613C1147.73 55.4417 1167.67 55.4417 1182.23 44.613L1199.97 31.4208C1214.53 20.5921 1234.47 20.5921 1249.03 31.4208L1266.77 44.613C1281.33 55.4417 1301.27 55.4417 1315.83 44.613L1358.11 13.1783" stroke="url(#paint28_linear_410_215)" stroke-width="3.73718"/>
<path d="M823.69 27.6165L865.961 59.0512C880.522 69.8799 900.461 69.8799 915.023 59.0512L932.763 45.859C947.324 35.0303 967.263 35.0303 981.825 45.859L999.565 59.0512C1014.13 69.8799 1034.07 69.8799 1048.63 59.0512L1066.37 45.859C1080.93 35.0303 1100.87 35.0303 1115.43 45.859L1133.17 59.0512C1147.73 69.8799 1167.67 69.8799 1182.23 59.0512L1199.97 45.859C1214.53 35.0303 1234.47 35.0303 1249.03 45.859L1266.77 59.0512C1281.33 69.8799 1301.27 69.8799 1315.83 59.0512L1358.11 27.6165" stroke="url(#paint29_linear_410_215)" stroke-width="3.73718"/>
<path d="M823.69 56.4929L865.961 87.9277C880.522 98.7564 900.461 98.7564 915.023 87.9277L932.763 74.7354C947.324 63.9068 967.263 63.9068 981.825 74.7355L999.565 87.9277C1014.13 98.7564 1034.07 98.7564 1048.63 87.9277L1066.37 74.7354C1080.93 63.9068 1100.87 63.9068 1115.43 74.7355L1133.17 87.9277C1147.73 98.7564 1167.67 98.7564 1182.23 87.9277L1199.97 74.7354C1214.53 63.9068 1234.47 63.9068 1249.03 74.7355L1266.77 87.9277C1281.33 98.7564 1301.27 98.7564 1315.83 87.9277L1358.11 56.4929" stroke="url(#paint30_linear_410_215)" stroke-width="3.73718"/>
<g filter="url(#filter4_f_410_215)">
<path d="M823.69 -1.26001L865.961 30.1748C880.522 41.0035 900.461 41.0034 915.023 30.1748L932.763 16.9825C947.324 6.15383 967.263 6.15385 981.825 16.9825L999.565 30.1748C1014.13 41.0035 1034.07 41.0034 1048.63 30.1748L1066.37 16.9825C1080.93 6.15383 1100.87 6.15385 1115.43 16.9825L1133.17 30.1748C1147.73 41.0035 1167.67 41.0034 1182.23 30.1748L1199.97 16.9825C1214.53 6.15383 1234.47 6.15385 1249.03 16.9825L1266.77 30.1748C1281.33 41.0035 1301.27 41.0034 1315.83 30.1748L1358.11 -1.26001" stroke="url(#paint31_linear_410_215)" stroke-width="3.73718"/>
<path d="M823.69 13.1783L865.961 44.613C880.522 55.4417 900.461 55.4417 915.023 44.613L932.763 31.4208C947.324 20.5921 967.263 20.5921 981.825 31.4208L999.565 44.613C1014.13 55.4417 1034.07 55.4417 1048.63 44.613L1066.37 31.4208C1080.93 20.5921 1100.87 20.5921 1115.43 31.4208L1133.17 44.613C1147.73 55.4417 1167.67 55.4417 1182.23 44.613L1199.97 31.4208C1214.53 20.5921 1234.47 20.5921 1249.03 31.4208L1266.77 44.613C1281.33 55.4417 1301.27 55.4417 1315.83 44.613L1358.11 13.1783" stroke="url(#paint32_linear_410_215)" stroke-width="3.73718"/>
<path d="M823.69 27.6165L865.961 59.0512C880.522 69.8799 900.461 69.8799 915.023 59.0512L932.763 45.859C947.324 35.0303 967.263 35.0303 981.825 45.859L999.565 59.0512C1014.13 69.8799 1034.07 69.8799 1048.63 59.0512L1066.37 45.859C1080.93 35.0303 1100.87 35.0303 1115.43 45.859L1133.17 59.0512C1147.73 69.8799 1167.67 69.8799 1182.23 59.0512L1199.97 45.859C1214.53 35.0303 1234.47 35.0303 1249.03 45.859L1266.77 59.0512C1281.33 69.8799 1301.27 69.8799 1315.83 59.0512L1358.11 27.6165" stroke="url(#paint33_linear_410_215)" stroke-width="3.73718"/>
<path d="M823.69 56.4929L865.961 87.9277C880.522 98.7564 900.461 98.7564 915.023 87.9277L932.763 74.7354C947.324 63.9068 967.263 63.9068 981.825 74.7355L999.565 87.9277C1014.13 98.7564 1034.07 98.7564 1048.63 87.9277L1066.37 74.7354C1080.93 63.9068 1100.87 63.9068 1115.43 74.7355L1133.17 87.9277C1147.73 98.7564 1167.67 98.7564 1182.23 87.9277L1199.97 74.7354C1214.53 63.9068 1234.47 63.9068 1249.03 74.7355L1266.77 87.9277C1281.33 98.7564 1301.27 98.7564 1315.83 87.9277L1358.11 56.4929" stroke="url(#paint34_linear_410_215)" stroke-width="3.73718"/>
</g>
<g filter="url(#filter5_f_410_215)">
<path d="M823.69 -1.26001L865.961 30.1748C880.522 41.0035 900.461 41.0034 915.023 30.1748L932.763 16.9825C947.324 6.15383 967.263 6.15385 981.825 16.9825L999.565 30.1748C1014.13 41.0035 1034.07 41.0034 1048.63 30.1748L1066.37 16.9825C1080.93 6.15383 1100.87 6.15385 1115.43 16.9825L1133.17 30.1748C1147.73 41.0035 1167.67 41.0034 1182.23 30.1748L1199.97 16.9825C1214.53 6.15383 1234.47 6.15385 1249.03 16.9825L1266.77 30.1748C1281.33 41.0035 1301.27 41.0034 1315.83 30.1748L1358.11 -1.26001" stroke="url(#paint35_linear_410_215)" stroke-width="3.73718"/>
<path d="M823.69 13.1783L865.961 44.613C880.522 55.4417 900.461 55.4417 915.023 44.613L932.763 31.4208C947.324 20.5921 967.263 20.5921 981.825 31.4208L999.565 44.613C1014.13 55.4417 1034.07 55.4417 1048.63 44.613L1066.37 31.4208C1080.93 20.5921 1100.87 20.5921 1115.43 31.4208L1133.17 44.613C1147.73 55.4417 1167.67 55.4417 1182.23 44.613L1199.97 31.4208C1214.53 20.5921 1234.47 20.5921 1249.03 31.4208L1266.77 44.613C1281.33 55.4417 1301.27 55.4417 1315.83 44.613L1358.11 13.1783" stroke="url(#paint36_linear_410_215)" stroke-width="3.73718"/>
<path d="M823.69 27.6165L865.961 59.0512C880.522 69.8799 900.461 69.8799 915.023 59.0512L932.763 45.859C947.324 35.0303 967.263 35.0303 981.825 45.859L999.565 59.0512C1014.13 69.8799 1034.07 69.8799 1048.63 59.0512L1066.37 45.859C1080.93 35.0303 1100.87 35.0303 1115.43 45.859L1133.17 59.0512C1147.73 69.8799 1167.67 69.8799 1182.23 59.0512L1199.97 45.859C1214.53 35.0303 1234.47 35.0303 1249.03 45.859L1266.77 59.0512C1281.33 69.8799 1301.27 69.8799 1315.83 59.0512L1358.11 27.6165" stroke="url(#paint37_linear_410_215)" stroke-width="3.73718"/>
<path d="M823.69 56.4929L865.961 87.9277C880.522 98.7564 900.461 98.7564 915.023 87.9277L932.763 74.7354C947.324 63.9068 967.263 63.9068 981.825 74.7355L999.565 87.9277C1014.13 98.7564 1034.07 98.7564 1048.63 87.9277L1066.37 74.7354C1080.93 63.9068 1100.87 63.9068 1115.43 74.7355L1133.17 87.9277C1147.73 98.7564 1167.67 98.7564 1182.23 87.9277L1199.97 74.7354C1214.53 63.9068 1234.47 63.9068 1249.03 74.7355L1266.77 87.9277C1281.33 98.7564 1301.27 98.7564 1315.83 87.9277L1358.11 56.4929" stroke="url(#paint38_linear_410_215)" stroke-width="3.73718"/>
</g>
</g>
<defs>
<filter id="filter0_f_410_215" x="-83.059" y="-89.7282" width="600.357" height="220.695" filterUnits="userSpaceOnUse" color-interpolation-filters="sRGB">
<feFlood flood-opacity="0" result="BackgroundImageFix"/>
<feBlend mode="normal" in="SourceGraphic" in2="BackgroundImageFix" result="shape"/>
<feGaussianBlur stdDeviation="20.3668" result="effect1_foregroundBlur_410_215"/>
</filter>
<filter id="filter1_f_410_215" x="-83.059" y="-89.7282" width="600.357" height="220.695" filterUnits="userSpaceOnUse" color-interpolation-filters="sRGB">
<feFlood flood-opacity="0" result="BackgroundImageFix"/>
<feBlend mode="normal" in="SourceGraphic" in2="BackgroundImageFix" result="shape"/>
<feGaussianBlur stdDeviation="20.3668" result="effect1_foregroundBlur_410_215"/>
</filter>
<filter id="filter2_f_410_215" x="321.592" y="-90.7005" width="664.396" height="244.236" filterUnits="userSpaceOnUse" color-interpolation-filters="sRGB">
<feFlood flood-opacity="0" result="BackgroundImageFix"/>
<feBlend mode="normal" in="SourceGraphic" in2="BackgroundImageFix" result="shape"/>
<feGaussianBlur stdDeviation="22.5392" result="effect1_foregroundBlur_410_215"/>
</filter>
<filter id="filter3_f_410_215" x="321.592" y="-90.7005" width="664.396" height="244.236" filterUnits="userSpaceOnUse" color-interpolation-filters="sRGB">
<feFlood flood-opacity="0" result="BackgroundImageFix"/>
<feBlend mode="normal" in="SourceGraphic" in2="BackgroundImageFix" result="shape"/>
<feGaussianBlur stdDeviation="22.5392" result="effect1_foregroundBlur_410_215"/>
</filter>
<filter id="filter4_f_410_215" x="780.447" y="-73.7633" width="620.901" height="228.247" filterUnits="userSpaceOnUse" color-interpolation-filters="sRGB">
<feFlood flood-opacity="0" result="BackgroundImageFix"/>
<feBlend mode="normal" in="SourceGraphic" in2="BackgroundImageFix" result="shape"/>
<feGaussianBlur stdDeviation="21.0637" result="effect1_foregroundBlur_410_215"/>
</filter>
<filter id="filter5_f_410_215" x="780.447" y="-73.7633" width="620.901" height="228.247" filterUnits="userSpaceOnUse" color-interpolation-filters="sRGB">
<feFlood flood-opacity="0" result="BackgroundImageFix"/>
<feBlend mode="normal" in="SourceGraphic" in2="BackgroundImageFix" result="shape"/>
<feGaussianBlur stdDeviation="21.0637" result="effect1_foregroundBlur_410_215"/>
</filter>
<linearGradient id="paint0_linear_410_215" x1="-41.0708" y1="42.3703" x2="475.663" y2="42.3703" gradientUnits="userSpaceOnUse">
<stop stop-color="#00F6FF"/>
<stop offset="1" stop-color="#9747FF"/>
</linearGradient>
<linearGradient id="paint1_linear_410_215" x1="-41.0708" y1="56.3308" x2="475.663" y2="56.3308" gradientUnits="userSpaceOnUse">
<stop stop-color="#00F6FF"/>
<stop offset="1" stop-color="#9747FF"/>
</linearGradient>
<linearGradient id="paint2_linear_410_215" x1="-41.0708" y1="84.2519" x2="475.663" y2="84.2519" gradientUnits="userSpaceOnUse">
<stop stop-color="#00F6FF"/>
<stop offset="1" stop-color="#9747FF"/>
</linearGradient>
<linearGradient id="paint3_linear_410_215" x1="-41.0708" y1="98.2123" x2="475.663" y2="98.2123" gradientUnits="userSpaceOnUse">
<stop stop-color="#00F6FF"/>
<stop offset="1" stop-color="#9747FF"/>
</linearGradient>
<linearGradient id="paint4_linear_410_215" x1="-41.0708" y1="42.3703" x2="475.663" y2="42.3703" gradientUnits="userSpaceOnUse">
<stop stop-color="#00F6FF"/>
<stop offset="1" stop-color="#9747FF"/>
</linearGradient>
<linearGradient id="paint5_linear_410_215" x1="-41.0708" y1="56.3308" x2="475.663" y2="56.3308" gradientUnits="userSpaceOnUse">
<stop stop-color="#00F6FF"/>
<stop offset="1" stop-color="#9747FF"/>
</linearGradient>
<linearGradient id="paint6_linear_410_215" x1="-41.0708" y1="84.2519" x2="475.663" y2="84.2519" gradientUnits="userSpaceOnUse">
<stop stop-color="#00F6FF"/>
<stop offset="1" stop-color="#9747FF"/>
</linearGradient>
<linearGradient id="paint7_linear_410_215" x1="-41.0708" y1="98.2123" x2="475.663" y2="98.2123" gradientUnits="userSpaceOnUse">
<stop stop-color="#00F6FF"/>
<stop offset="1" stop-color="#9747FF"/>
</linearGradient>
<linearGradient id="paint8_linear_410_215" x1="-41.0708" y1="42.3703" x2="475.663" y2="42.3703" gradientUnits="userSpaceOnUse">
<stop stop-color="#00F6FF"/>
<stop offset="1" stop-color="#9747FF"/>
</linearGradient>
<linearGradient id="paint9_linear_410_215" x1="-41.0708" y1="56.3308" x2="475.663" y2="56.3308" gradientUnits="userSpaceOnUse">
<stop stop-color="#00F6FF"/>
<stop offset="1" stop-color="#9747FF"/>
</linearGradient>
<linearGradient id="paint10_linear_410_215" x1="-41.0708" y1="84.2519" x2="475.663" y2="84.2519" gradientUnits="userSpaceOnUse">
<stop stop-color="#00F6FF"/>
<stop offset="1" stop-color="#9747FF"/>
</linearGradient>
<linearGradient id="paint11_linear_410_215" x1="-41.0708" y1="98.2123" x2="475.663" y2="98.2123" gradientUnits="userSpaceOnUse">
<stop stop-color="#00F6FF"/>
<stop offset="1" stop-color="#9747FF"/>
</linearGradient>
<linearGradient id="paint12_linear_410_215" x1="368.059" y1="40.039" x2="939.911" y2="40.039" gradientUnits="userSpaceOnUse">
<stop stop-color="#9747FF"/>
<stop offset="1" stop-color="#FF00A8"/>
</linearGradient>
<linearGradient id="paint13_linear_410_215" x1="368.059" y1="55.4886" x2="939.911" y2="55.4886" gradientUnits="userSpaceOnUse">
<stop stop-color="#9747FF"/>
<stop offset="1" stop-color="#FF00A8"/>
</linearGradient>
<linearGradient id="paint14_linear_410_215" x1="368.059" y1="70.9383" x2="939.911" y2="70.9383" gradientUnits="userSpaceOnUse">
<stop stop-color="#9747FF"/>
<stop offset="1" stop-color="#FF00A8"/>
</linearGradient>
<linearGradient id="paint15_linear_410_215" x1="368.059" y1="101.838" x2="939.911" y2="101.838" gradientUnits="userSpaceOnUse">
<stop stop-color="#9747FF"/>
<stop offset="1" stop-color="#FF00A8"/>
</linearGradient>
<linearGradient id="paint16_linear_410_215" x1="368.059" y1="117.287" x2="939.911" y2="117.287" gradientUnits="userSpaceOnUse">
<stop stop-color="#9747FF"/>
<stop offset="1" stop-color="#FF00A8"/>
</linearGradient>
<linearGradient id="paint17_linear_410_215" x1="368.059" y1="40.039" x2="939.911" y2="40.039" gradientUnits="userSpaceOnUse">
<stop stop-color="#9747FF"/>
<stop offset="1" stop-color="#FF00A8"/>
</linearGradient>
<linearGradient id="paint18_linear_410_215" x1="368.059" y1="55.4886" x2="939.911" y2="55.4886" gradientUnits="userSpaceOnUse">
<stop stop-color="#9747FF"/>
<stop offset="1" stop-color="#FF00A8"/>
</linearGradient>
<linearGradient id="paint19_linear_410_215" x1="368.059" y1="70.9383" x2="939.911" y2="70.9383" gradientUnits="userSpaceOnUse">
<stop stop-color="#9747FF"/>
<stop offset="1" stop-color="#FF00A8"/>
</linearGradient>
<linearGradient id="paint20_linear_410_215" x1="368.059" y1="101.838" x2="939.911" y2="101.838" gradientUnits="userSpaceOnUse">
<stop stop-color="#9747FF"/>
<stop offset="1" stop-color="#FF00A8"/>
</linearGradient>
<linearGradient id="paint21_linear_410_215" x1="368.059" y1="117.287" x2="939.911" y2="117.287" gradientUnits="userSpaceOnUse">
<stop stop-color="#9747FF"/>
<stop offset="1" stop-color="#FF00A8"/>
</linearGradient>
<linearGradient id="paint22_linear_410_215" x1="368.059" y1="40.039" x2="939.911" y2="40.039" gradientUnits="userSpaceOnUse">
<stop stop-color="#9747FF"/>
<stop offset="1" stop-color="#FF00A8"/>
</linearGradient>
<linearGradient id="paint23_linear_410_215" x1="368.059" y1="55.4886" x2="939.911" y2="55.4886" gradientUnits="userSpaceOnUse">
<stop stop-color="#9747FF"/>
<stop offset="1" stop-color="#FF00A8"/>
</linearGradient>
<linearGradient id="paint24_linear_410_215" x1="368.059" y1="70.9383" x2="939.911" y2="70.9383" gradientUnits="userSpaceOnUse">
<stop stop-color="#9747FF"/>
<stop offset="1" stop-color="#FF00A8"/>
</linearGradient>
<linearGradient id="paint25_linear_410_215" x1="368.059" y1="101.838" x2="939.911" y2="101.838" gradientUnits="userSpaceOnUse">
<stop stop-color="#9747FF"/>
<stop offset="1" stop-color="#FF00A8"/>
</linearGradient>
<linearGradient id="paint26_linear_410_215" x1="368.059" y1="117.287" x2="939.911" y2="117.287" gradientUnits="userSpaceOnUse">
<stop stop-color="#9747FF"/>
<stop offset="1" stop-color="#FF00A8"/>
</linearGradient>
<linearGradient id="paint27_linear_410_215" x1="823.872" y1="48.4173" x2="1358.29" y2="48.4173" gradientUnits="userSpaceOnUse">
<stop stop-color="#00F6FF"/>
<stop offset="1" stop-color="#9747FF"/>
</linearGradient>
<linearGradient id="paint28_linear_410_215" x1="823.872" y1="62.8556" x2="1358.29" y2="62.8556" gradientUnits="userSpaceOnUse">
<stop stop-color="#00F6FF"/>
<stop offset="1" stop-color="#9747FF"/>
</linearGradient>
<linearGradient id="paint29_linear_410_215" x1="823.872" y1="77.2938" x2="1358.29" y2="77.2938" gradientUnits="userSpaceOnUse">
<stop stop-color="#00F6FF"/>
<stop offset="1" stop-color="#9747FF"/>
</linearGradient>
<linearGradient id="paint30_linear_410_215" x1="823.872" y1="106.17" x2="1358.29" y2="106.17" gradientUnits="userSpaceOnUse">
<stop stop-color="#00F6FF"/>
<stop offset="1" stop-color="#9747FF"/>
</linearGradient>
<linearGradient id="paint31_linear_410_215" x1="823.872" y1="48.4173" x2="1358.29" y2="48.4173" gradientUnits="userSpaceOnUse">
<stop stop-color="#00F6FF"/>
<stop offset="1" stop-color="#9747FF"/>
</linearGradient>
<linearGradient id="paint32_linear_410_215" x1="823.872" y1="62.8556" x2="1358.29" y2="62.8556" gradientUnits="userSpaceOnUse">
<stop stop-color="#00F6FF"/>
<stop offset="1" stop-color="#9747FF"/>
</linearGradient>
<linearGradient id="paint33_linear_410_215" x1="823.872" y1="77.2938" x2="1358.29" y2="77.2938" gradientUnits="userSpaceOnUse">
<stop stop-color="#00F6FF"/>
<stop offset="1" stop-color="#9747FF"/>
</linearGradient>
<linearGradient id="paint34_linear_410_215" x1="823.872" y1="106.17" x2="1358.29" y2="106.17" gradientUnits="userSpaceOnUse">
<stop stop-color="#00F6FF"/>
<stop offset="1" stop-color="#9747FF"/>
</linearGradient>
<linearGradient id="paint35_linear_410_215" x1="823.872" y1="48.4173" x2="1358.29" y2="48.4173" gradientUnits="userSpaceOnUse">
<stop stop-color="#00F6FF"/>
<stop offset="1" stop-color="#9747FF"/>
</linearGradient>
<linearGradient id="paint36_linear_410_215" x1="823.872" y1="62.8556" x2="1358.29" y2="62.8556" gradientUnits="userSpaceOnUse">
<stop stop-color="#00F6FF"/>
<stop offset="1" stop-color="#9747FF"/>
</linearGradient>
<linearGradient id="paint37_linear_410_215" x1="823.872" y1="77.2938" x2="1358.29" y2="77.2938" gradientUnits="userSpaceOnUse">
<stop stop-color="#00F6FF"/>
<stop offset="1" stop-color="#9747FF"/>
</linearGradient>
<linearGradient id="paint38_linear_410_215" x1="823.872" y1="106.17" x2="1358.29" y2="106.17" gradientUnits="userSpaceOnUse">
<stop stop-color="#00F6FF"/>
<stop offset="1" stop-color="#9747FF"/>
</linearGradient>
</defs>
</svg>
