<svg xmlns="http://www.w3.org/2000/svg" xmlns:xlink="http://www.w3.org/1999/xlink" version="1.1" width="940" height="788" viewBox="0 0 940 788" xml:space="preserve">
<desc>Created with Fabric.js 3.5.0</desc>
<defs>
</defs>
<rect x="0" y="0" width="100%" height="100%" fill="rgba(102,51,102,0)"/>
<g transform="matrix(6.948 0 0 6.948 470.0012 394.0007)" id="226661">
<path style="stroke: none; stroke-width: 1; stroke-dasharray: none; stroke-linecap: butt; stroke-dashoffset: 0; stroke-linejoin: miter; stroke-miterlimit: 4; is-custom-font: none; font-file-url: none; fill: rgb(255,255,255); fill-rule: nonzero; opacity: 1;" vector-effect="non-scaling-stroke" transform=" translate(-63.985, -63.9846)" d="M 126.67 98.44 c -4.56 1.16 -7.38 0.05 -9.91 -3.75 c -5.68 -8.51 -11.95 -16.63 -18 -24.9 c -0.78 -1.07 -1.59 -2.12 -2.6 -3.45 C 89 76 81.85 85.2 75.14 94.77 c -2.4 3.42 -4.92 4.91 -9.4 3.7 l 26.92 -36.13 L 67.6 29.71 c 4.31 -0.84 7.29 -0.41 9.93 3.45 c 5.83 8.52 12.26 16.63 18.67 25.21 c 6.45 -8.55 12.8 -16.67 18.8 -25.11 c 2.41 -3.42 5 -4.72 9.33 -3.46 c -3.28 4.35 -6.49 8.63 -9.72 12.88 c -4.36 5.73 -8.64 11.53 -13.16 17.14 c -1.61 2 -1.35 3.3 0.09 5.19 C 109.9 76 118.16 87.1 126.67 98.44 z M 1.33 61.74 c 0.72 -3.61 1.2 -7.29 2.2 -10.83 c 6 -21.43 30.6 -30.34 47.5 -17.06 C 60.93 41.64 63.39 52.62 62.9 65 H 7.1 c -0.84 22.21 15.15 35.62 35.53 28.78 c 7.15 -2.4 11.36 -8 13.47 -15 c 1.07 -3.51 2.84 -4.06 6.14 -3.06 c -1.69 8.76 -5.52 16.08 -13.52 20.66 c -12 6.86 -29.13 4.64 -38.14 -4.89 C 5.26 85.89 3 78.92 2 71.39 c -0.15 -1.2 -0.46 -2.38 -0.7 -3.57 q 0.03 -3.04 0.03 -6.08 z m 5.87 -1.49 h 50.43 c -0.33 -16.06 -10.33 -27.47 -24 -27.57 c -15 -0.12 -25.78 11.02 -26.43 27.57 z" stroke-linecap="round"/>
</g>
</svg>